<?xml version="1.0" encoding="utf-8"?>
<!-- Generator: Adobe Illustrator 19.0.0, SVG Export Plug-In . SVG Version: 6.00 Build 0)  -->
<svg version="1.1"
	 id="Layer_1" xmlns:sodipodi="http://sodipodi.sourceforge.net/DTD/sodipodi-0.dtd" xmlns:cc="http://creativecommons.org/ns#" xmlns:svg="http://www.w3.org/2000/svg" xmlns:dc="http://purl.org/dc/elements/1.1/" xmlns:rdf="http://www.w3.org/1999/02/22-rdf-syntax-ns#" xmlns:inkscape="http://www.inkscape.org/namespaces/inkscape"
	 xmlns="http://www.w3.org/2000/svg" xmlns:xlink="http://www.w3.org/1999/xlink" x="0px" y="0px" viewBox="-268 384 26 26"
	 style="enable-background:new -268 384 26 26;" xml:space="preserve">
<style type="text/css">
	.st0{fill:#FFFFFF;}
</style>
<g transform="translate(0,-1002.3622)">
	<path class="st0" d="M-265,1386.4c-0.8,0-1.5,0.3-2.1,0.9c-1.2,1.2-1.2,3.1,0,4.3l7.8,7.8l-7.8,7.8c-1.2,1.2-1.2,3.1,0,4.3
		c1.2,1.2,3.1,1.2,4.3,0l7.8-7.8l7.8,7.8c1.2,1.2,3.1,1.2,4.3,0c1.2-1.2,1.2-3.1,0-4.3l-7.8-7.8l7.8-7.8c1.2-1.2,1.2-3.1,0-4.3
		c-1.2-1.2-3.1-1.2-4.3,0l-7.8,7.8l-7.8-7.8C-263.4,1386.7-264.2,1386.4-265,1386.4z"/>
</g>
</svg>
