<?xml version="1.0" encoding="utf-8"?>
<!-- Generator: Adobe Illustrator 19.0.0, SVG Export Plug-In . SVG Version: 6.00 Build 0)  -->
<svg version="1.1" id="Layer_1" xmlns="http://www.w3.org/2000/svg" xmlns:xlink="http://www.w3.org/1999/xlink" x="0px" y="0px"
	 viewBox="-255 347 100 100" style="enable-background:new -255 347 100 100;" xml:space="preserve">
<style type="text/css">
	.st0{fill:#FFFFFF;}
</style>
<g>
	<g>
		<polygon class="st0" points="-204.2,400 -215.9,413.4 -224,405 -224.1,404.6 -237.5,420.2 -190.8,420.2 		"/>
		<circle class="st0" cx="-230.4" cy="395" r="4.1"/>
	</g>
</g>
<path class="st0" d="M-244.1,381v46.3h60.9V381H-244.1z M-187.4,423.8h-52.5v-39.2h52.5V423.8z"/>
<polygon class="st0" points="-235.9,373.8 -235.9,379.1 -231.6,379.1 -231.6,377.4 -179.2,377.4 -179.2,416.6 -181.1,416.6 
	-181.1,420.2 -174.9,420.2 -174.9,373.8 "/>
<polygon class="st0" points="-227.8,366.8 -227.8,372.1 -223.6,372.1 -223.6,370.4 -171.1,370.4 -171.1,409.6 -173,409.6 
	-173,413.2 -166.9,413.2 -166.9,366.8 "/>
</svg>
