<svg xmlns="http://www.w3.org/2000/svg">
	<symbol id="stenik" viewBox="-255 347 100 100">
		<path fill-rule="evenodd" clip-rule="evenodd" fill="#323031" class="st0" d="M-205 348.6c26.7 0 48.4 21.7 48.4 48.4s-21.7 48.4-48.4 48.4-48.4-21.7-48.4-48.4 21.7-48.4 48.4-48.4z"/>
		<path fill="#FFFFFF" class="st1" d="M-209.5 366.6c1.7 0 3.4.1 5.2.4 5.5.8 9.6 2.1 14.8 3.7 4.7 1.5 10.6 3.4 19.1 5.3l-5.9 23.7c-4.5-7.1-14.1-10.5-29.5-10.5-2.2 0-4.6.1-7 .2h-1.5c-6 0-9.2-2.2-10.8-4.1-1.7-1.9-2.5-4.4-2.2-6.7 1-7.5 7.7-12 17.8-12m-24.2 27.3c5.3 8.6 17 9 35 9h.8c6.8 0 10.4 2.4 12.2 4.4 1.7 2 2.5 4.4 2.2 6.8-1.1 8.3-7.5 13.2-17.3 13.2-1.5 0-3-.1-4.5-.3-5.6-.8-9.9-2.1-15.4-3.8-4.7-1.4-10.6-3.2-18.8-5.1l5.8-24.2"/>
	</symbol>
	<symbol id="iconSearch" viewBox="0 0 20 20">
		<path d="M8.5 17C3.8 17 0 13.2 0 8.5S3.8 0 8.5 0 17 3.8 17 8.5 13.2 17 8.5 17zm0-15C4.9 2 2 4.9 2 8.5S4.9 15 8.5 15 15 12.1 15 8.5 12.1 2 8.5 2z"/><path d="M19 20c-.3 0-.5-.1-.7-.3l-5.2-5.2c-.4-.4-.4-1 0-1.4s1-.4 1.4 0l5.2 5.2c.4.4.4 1 0 1.4-.2.2-.4.3-.7.3z"/>
	</symbol>
	<symbol id="iconSearch" viewBox="0 0 22.8 22.8">
	  <g>
	    <ellipse cx="9.6" cy="9.6" rx="9.6" ry="9.6" fill="none"/>
	    <path d="M9.6 19.2C4.3 19.2 0 14.9 0 9.6S4.3 0 9.6 0s9.6 4.3 9.6 9.6-4.3 9.6-9.6 9.6zm0-17.7c-4.5 0-8.1 3.6-8.1 8.1s3.6 8.1 8.1 8.1 8.1-3.6 8.1-8.1-3.6-8.1-8.1-8.1z"/>
	  </g>
	  <path d="M22.1 22.8c-.2 0-.4-.1-.5-.2l-6.2-6.2c-.3-.3-.3-.8 0-1.1.3-.3.8-.3 1.1 0l6.2 6.2c.3.3.3.8 0 1.1-.2.1-.4.2-.6.2z" />
	</symbol>
	<symbol id="iconDate" viewBox="-49 141 512 512">
		<path d="M268 549.4h81.3c5.6 0 10.2-4.5 10.2-10.2V458c0-5.6-4.5-10.2-10.2-10.2H268c-5.6 0-10.2 4.6-10.2 10.2v81.3c0 5.6 4.5 10.1 10.2 10.1z"/>
		<path d="M435.6 193.8h-50.8v-40.6c0-5.6-4.5-10.2-10.2-10.2h-30.5c-5.6 0-10.1 4.5-10.1 10.2v40.6h-50.8v-40.6c0-5.7-4.5-10.2-10.2-10.2h-30.5c-5.6 0-10.2 4.5-10.2 10.2v40.6h-50.8v-40.6c0-5.6-4.5-10.2-10.2-10.2H141c-5.6 0-10.2 4.5-10.2 10.2v40.6H80v-40.6c0-5.7-4.5-10.2-10.2-10.2H39.4c-5.6 0-10.2 4.5-10.2 10.2v40.6h-50.8c-14 0-25.4 11.4-25.4 25.4v406.4c0 14 11.4 25.4 25.4 25.4h457.2c14 0 25.4-11.4 25.4-25.4V219.2c0-14-11.4-25.4-25.4-25.4zm-25.4 406.4H3.8V295.4h406.4v304.8z"/>
	</symbol>
	<symbol id="iconSwipe" viewBox="-283.4 386.6 20.7 21.4">
		<path d="M-265.3 398.2c-1.5-1-3.6-.8-5 .6l-.7.7V390c0-1.1-.9-2-2-2s-2 .9-2 2v4.4c-.4-.4-.9-.7-1.5-.7-.4 0-.8.1-1.2.4l-4.3 2.5c-.6.3-1 1-1 1.7v3.3c0 3.6 2.9 6.5 6.5 6.5 1.7 0 3.3-.7 4.5-1.8l6.9-6.9c.3-.3.3-.7 0-1-.2-.1-.2-.1-.2-.2zM-266 393.4l3.4-3.4-3.4-3.4v2.4h-3v2h3M-280 391h3v-2h-3v-2.4l-3.4 3.4 3.4 3.4"/>
	</symbol>
	<symbol id="iconArrowDown" viewBox="-232 377.9 68.2 38.1">
		<path d="M-198 416.1c-1.1 0-2.1-.4-2.8-1.2l-30-30c-1.6-1.6-1.6-4.1 0-5.7s4.1-1.6 5.7 0l27.2 27.2 27.2-27.2c1.6-1.6 4.1-1.6 5.7 0 1.6 1.6 1.6 4.1 0 5.7l-30 30c-.9.7-1.9 1.2-3 1.2z"/>
	</symbol>
	<symbol id="facebook" viewBox="0 0 20 20">
	  <path d="M18.9 20a1.1 1.1 0 0 0 1.1-1.1V1.1A1.1 1.1 0 0 0 18.9 0H1.1A1.1 1.1 0 0 0 0 1.1v17.8A1.1 1.1 0 0 0 1.1 20h17.8" />
	  <path d="M13.8 20v-7.744h2.6l.389-3.018H13.8V7.31c0-.874.243-1.469 1.5-1.469h1.6v-2.7a21.366 21.366 0 0 0-2.329-.119 3.637 3.637 0 0 0-3.882 3.99v2.226H8.083v3.018h2.606v7.745H13.8" fill="#fff"/>
	</symbol>
	<symbol id="twitter" viewBox="0 0 24.615 20">
	  <path d="M24.615 2.368a10.522 10.522 0 0 1-2.908.8 5.018 5.018 0 0 0 2.22-2.789 10.085 10.085 0 0 1-3.2 1.222A5.046 5.046 0 0 0 12 5.048a5.2 5.2 0 0 0 .115 1.152A14.283 14.283 0 0 1 1.714.92a5.054 5.054 0 0 0 1.551 6.745 4.985 4.985 0 0 1-2.28-.622V7.1a5.069 5.069 0 0 0 4.043 4.958 5.037 5.037 0 0 1-1.323.166 4.462 4.462 0 0 1-.955-.086 5.094 5.094 0 0 0 4.715 3.515A10.138 10.138 0 0 1 1.208 17.8 9.452 9.452 0 0 1 0 17.735 14.206 14.206 0 0 0 7.742 20 14.264 14.264 0 0 0 22.1 5.64c0-.223-.008-.438-.018-.652a10.068 10.068 0 0 0 2.533-2.62z"/>
	</symbol>
	<symbol id="google" viewBox="0 0 24 24">
		<path d="M12 0C5.373 0 0 5.373 0 12s5.373 12 12 12 12-5.373 12-12S18.627 0 12 0zM9.083 16.083C6.825 16.083 5 14.258 5 12s1.825-4.083 4.083-4.083c1.103 0 2.024.402 2.735 1.067l-1.107 1.068c-.303-.292-.833-.63-1.627-.63-1.394 0-2.53 1.155-2.53 2.58 0 1.423 1.137 2.578 2.53 2.578 1.616 0 2.224-1.162 2.316-1.762H9.082v-1.4h3.855c.036.204.064.408.064.677 0 2.332-1.563 3.988-3.92 3.988zm9.917-3.5h-1.75v1.75h-1.167v-1.75h-1.75v-1.166h1.75v-1.75h1.167v1.75H19v1.166z"/>
	</symbol>
	<symbol id="pinterest" viewBox="0 0 24 24">
		<path d="M12 0C5.373 0 0 5.372 0 12c0 5.084 3.163 9.426 7.627 11.174-.105-.95-.2-2.405.042-3.44.217-.938 1.406-5.966 1.406-5.966s-.36-.72-.36-1.782c0-1.668.968-2.914 2.172-2.914 1.023 0 1.518.77 1.518 1.69 0 1.03-.655 2.568-.994 3.995-.283 1.194.6 2.17 1.777 2.17 2.132 0 3.77-2.25 3.77-5.496 0-2.872-2.063-4.88-5.01-4.88-3.415 0-5.42 2.56-5.42 5.206 0 1.03.398 2.138.894 2.738.098.12.112.224.083.345l-.333 1.36c-.053.22-.174.266-.402.16-1.5-.698-2.436-2.89-2.436-4.65 0-3.784 2.75-7.26 7.93-7.26 4.162 0 7.397 2.966 7.397 6.93 0 4.136-2.607 7.464-6.227 7.464-1.216 0-2.36-.63-2.75-1.378l-.748 2.853c-.27 1.042-1.002 2.35-1.492 3.145C9.57 23.812 10.763 24 12 24c6.627 0 12-5.373 12-12 0-6.628-5.373-12-12-12z" fill-rule="evenodd" clip-rule="evenodd"/>
	</symbol>
	<symbol id="linkedin" viewBox="0 0 20 20">
	  <path d="M0 6.25h4.472V20H0z"/>
	  <path d="M16.655 6.411c-.048-.015-.093-.031-.142-.045s-.12-.025-.181-.035a4.009 4.009 0 0 0-.8-.081 6.214 6.214 0 0 0-4.81 2.629V6.25H6.25V20h4.472v-7.5s3.38-4.707 4.806-1.25V20H20v-9.279a4.46 4.46 0 0 0-3.35-4.31z"/>
	  <circle cx="2.188" cy="2.188" r="2.188"/>
	</symbol>
	<symbol id="instagram" viewBox="0 0 20 20">
	  <path d="M13.75 0h-7.5A6.25 6.25 0 0 0 0 6.25v7.5A6.25 6.25 0 0 0 6.25 20h7.5A6.25 6.25 0 0 0 20 13.75v-7.5A6.25 6.25 0 0 0 13.75 0zm4.375 13.75a4.38 4.38 0 0 1-4.375 4.375h-7.5a4.38 4.38 0 0 1-4.375-4.375v-7.5A4.38 4.38 0 0 1 6.25 1.875h7.5a4.38 4.38 0 0 1 4.375 4.375z"/>
	  <path d="M10 5a5 5 0 1 0 5 5 5 5 0 0 0-5-5zm0 8.125A3.125 3.125 0 1 1 13.125 10 3.129 3.129 0 0 1 10 13.125z"/>
	  <circle cx=".666" cy=".666" r=".666" transform="translate(14.709 3.959)"/>
	</symbol>
	<symbol id="youtube" viewBox="0 0 29.091 20">
	  <g>
	    <path d="M27.855 1.927C27.066.527 26.21.265 24.466.167 22.724.049 18.344 0 14.549 0S6.365.049 4.625.165c-1.74.1-2.6.356-3.395 1.762C.418 3.329 0 5.744 0 9.995v.015c0 4.233.418 6.665 1.231 8.053.8 1.4 1.653 1.658 3.393 1.776 1.742.1 6.124.162 9.925.162s8.175-.06 9.918-.16c1.744-.118 2.6-.373 3.389-1.776.82-1.387 1.235-3.82 1.235-8.053V10c0-4.253-.415-6.667-1.236-8.069z"/>
	    <path d="M10.909 15.454V4.545L20 10z" fill="#fafafa"/>
	  </g>
	</symbol>
	<symbol id="youtube" viewBox="0 0 24 24">
		<path d="M12 0C5.373 0 0 5.373 0 12s5.373 12 12 12 12-5.373 12-12S18.627 0 12 0zm4.44 16.892c-2.1.144-6.783.144-8.882 0C5.282 16.736 5.018 15.622 5 12c.017-3.63.285-4.736 2.558-4.892 2.1-.144 6.782-.144 8.883 0C18.72 7.264 18.983 8.378 19 12c-.018 3.63-.285 4.736-2.56 4.892zM10 9.658l4.917 2.338L10 14.342V9.658z"/>
	</symbol>
	<symbol id="rss" viewBox="0 0 20 20">
	  <g transform="translate(-1 -1)">
	    <circle cx="2.857" cy="2.857" r="2.857" transform="translate(1 15.286)"/>
	    <path d="M1 7.667v3.81A9.534 9.534 0 0 1 10.524 21h3.809A13.348 13.348 0 0 0 1 7.667z"/>
	    <path d="M1 1v3.81A16.208 16.208 0 0 1 17.191 21H21A20.022 20.022 0 0 0 1 1z"/>
	  </g>
	</symbol>
	<symbol id="phone1" viewBox="0 0 21.998 22">
	  <path data-name="Path 134" d="M21.99 18.107a1.326 1.326 0 0 0-.51-.911l-4.24-3.276a2.222 2.222 0 0 0-2.48-.167l-.78.447a1.343 1.343 0 0 1-1.5-.1 25.985 25.985 0 0 1-2.471-2.153 25.678 25.678 0 0 1-2.118-2.43 1.343 1.343 0 0 1-.1-1.5l.451-.781A2.223 2.223 0 0 0 8.08 4.76L4.803.52A1.335 1.335 0 0 0 2.895.308C2.18.9 1.25 1.678.929 2A3.706 3.706 0 0 0 0 4.853c0 1.574 2.89 7.429 6.37 10.765C9.716 19.111 15.572 22 17.148 22a3.7 3.7 0 0 0 2.851-.929c.348-.347 1.21-1.382 1.692-1.966a1.325 1.325 0 0 0 .299-.998zm-.977.437c-.805.976-1.4 1.67-1.636 1.905a2.783 2.783 0 0 1-2.231.671c-1.208 0-6.884-2.709-10.156-6.124C3.59 11.736.88 6.062.88 4.853a2.783 2.783 0 0 1 .671-2.231c.229-.232.909-.813 1.905-1.636a.45.45 0 0 1 .29-.1h.051a.452.452 0 0 1 .311.175L7.38 5.3a1.349 1.349 0 0 1 .1 1.5l-.451.781a2.221 2.221 0 0 0 .159 2.471 26.391 26.391 0 0 0 2.2 2.52 26.907 26.907 0 0 0 2.558 2.228 2.219 2.219 0 0 0 2.474.165l.78-.451a1.347 1.347 0 0 1 1.5.1l4.239 3.276a.456.456 0 0 1 .174.312.448.448 0 0 1-.1.343z" />
	</symbol>
	<symbol id="phone2" viewBox="0 0 13.2 22">
	  <g>
	    <g>
	      <path d="M11 0H2.2A2.2 2.2 0 0 0 0 2.2v17.6A2.2 2.2 0 0 0 2.2 22H11a2.2 2.2 0 0 0 2.2-2.2V2.2A2.2 2.2 0 0 0 11 0zm1.32 19.8A1.322 1.322 0 0 1 11 21.12H2.2A1.322 1.322 0 0 1 .88 19.8V2.2A1.322 1.322 0 0 1 2.2.88H11a1.322 1.322 0 0 1 1.32 1.32z"/>
	    </g>
	  </g>
	  <g>
	    <g>
	      <path d="M7.614 2.029H5.585a.507.507 0 1 0 0 1.015h2.029a.507.507 0 1 0 0-1.015z"/>
	    </g>
	  </g>
	  <g>
	    <g>
	      <path d="M6.6 18.956a.507.507 0 1 0 .507.507.507.507 0 0 0-.507-.507z"/>
	    </g>
	  </g>
	  <g>
	    <g>
	      <path d="M12.76 3.648H.44a.512.512 0 0 0 0 1.015h12.32a.512.512 0 0 0 0-1.015z"/>
	    </g>
	  </g>
	  <g>
	    <g>
	      <path d="M12.76 17.338H.44a.512.512 0 0 0 0 1.015h12.32a.512.512 0 0 0 0-1.015z"/>
	    </g>
	  </g>
	</symbol>
</svg>